<svg id="svg" version="1.1" xmlns="http://www.w3.org/2000/svg" xmlns:xlink="http://www.w3.org/1999/xlink" width="400" height="400" viewBox="0, 0, 400,400"><g id="svgg"><path id="path0" d="M145.690 127.637 L 143.555 129.883 145.801 127.748 C 147.887 125.764,148.226 125.391,147.936 125.391 C 147.875 125.391,146.864 126.401,145.690 127.637 M261.080 177.930 C 261.081 180.078,261.147 180.907,261.226 179.772 C 261.305 178.637,261.304 176.879,261.224 175.866 C 261.144 174.853,261.079 175.781,261.080 177.930 M121.609 181.250 C 121.609 182.646,121.680 183.218,121.767 182.520 C 121.854 181.821,121.854 180.679,121.767 179.980 C 121.680 179.282,121.609 179.854,121.609 181.250 M190.234 214.966 C 190.234 215.033,190.806 215.604,191.504 216.236 L 192.773 217.383 191.626 216.113 C 190.557 214.930,190.234 214.664,190.234 214.966 " stroke="none" fill="#ac0434" fill-rule="evenodd"></path><path id="path1" d="M207.226 100.780 C 207.507 101.235,209.243 101.311,209.509 100.879 C 209.608 100.718,209.081 100.541,208.336 100.487 C 207.508 100.426,207.077 100.540,207.226 100.780 M203.125 101.448 C 203.125 101.902,203.382 101.981,204.199 101.781 C 204.790 101.636,205.658 101.493,206.127 101.462 C 207.670 101.361,206.711 100.906,204.898 100.879 C 203.557 100.858,203.125 100.997,203.125 101.448 M197.226 101.732 C 197.133 101.825,196.357 101.995,195.501 102.110 C 193.292 102.405,191.715 102.739,191.293 103.000 C 190.708 103.361,187.867 103.403,187.651 103.053 C 187.542 102.877,187.135 102.902,186.746 103.110 C 186.358 103.318,185.933 103.381,185.803 103.251 C 185.672 103.120,185.455 103.301,185.320 103.653 C 185.185 104.005,184.925 104.200,184.742 104.087 C 184.228 103.769,181.854 104.886,180.857 105.914 C 180.366 106.421,180.087 106.616,180.239 106.348 C 180.753 105.438,179.422 105.841,178.306 106.934 C 177.703 107.524,177.337 107.788,177.495 107.520 C 177.674 107.212,177.546 107.031,177.148 107.031 C 176.770 107.031,176.628 107.212,176.795 107.482 C 176.968 107.762,176.902 107.827,176.623 107.654 C 176.375 107.501,175.952 107.513,175.684 107.681 C 175.415 107.849,175.020 108.021,174.805 108.064 C 173.810 108.263,171.545 109.699,171.793 109.974 C 171.945 110.143,171.867 110.165,171.619 110.023 C 171.239 109.806,167.413 111.454,166.797 112.100 C 166.689 112.213,165.986 112.639,165.234 113.047 C 163.162 114.172,158.984 117.184,158.984 117.552 C 158.984 117.731,158.633 117.970,158.203 118.082 C 157.773 118.194,157.422 118.127,157.422 117.932 C 157.422 116.824,151.806 121.580,149.219 124.880 C 148.896 125.291,148.798 125.354,149.000 125.021 C 149.203 124.687,148.008 125.732,146.345 127.344 C 143.027 130.559,139.622 135.187,139.948 136.036 C 140.087 136.397,139.876 136.568,139.316 136.550 C 138.708 136.531,138.511 136.723,138.600 137.246 C 138.668 137.644,138.556 137.865,138.352 137.739 C 138.147 137.612,137.049 139.696,135.912 142.371 C 133.632 147.734,132.657 149.223,131.364 149.319 C 130.706 149.367,130.260 149.940,129.479 151.742 C 128.916 153.040,128.224 154.629,127.941 155.273 C 127.658 155.918,127.250 156.885,127.034 157.422 C 126.819 157.959,126.361 159.040,126.016 159.825 C 125.672 160.609,125.391 161.497,125.391 161.797 C 125.391 162.098,125.180 162.555,124.922 162.812 C 124.557 163.177,124.574 163.281,124.997 163.281 C 125.363 163.281,125.293 163.468,124.782 163.855 C 124.235 164.268,124.180 164.432,124.586 164.441 C 125.052 164.451,125.044 164.537,124.539 164.941 C 123.712 165.602,122.926 167.969,123.532 167.969 C 123.777 167.969,123.636 168.227,123.219 168.542 C 122.639 168.981,122.599 169.120,123.047 169.134 C 123.477 169.148,123.506 169.233,123.154 169.457 C 122.891 169.624,122.617 170.144,122.546 170.612 C 122.474 171.081,122.294 171.586,122.145 171.735 C 121.684 172.196,121.848 172.717,122.363 172.427 C 122.632 172.275,122.439 172.551,121.934 173.040 C 121.209 173.744,121.127 174.000,121.544 174.264 C 121.934 174.511,121.944 174.599,121.582 174.603 C 121.067 174.610,120.901 176.239,121.368 176.706 C 121.519 176.857,121.656 184.401,121.674 193.471 C 121.703 209.143,121.809 211.637,122.638 216.211 C 122.832 217.285,123.211 219.614,123.480 221.387 C 123.749 223.159,124.098 224.609,124.255 224.609 C 124.412 224.609,124.665 225.356,124.816 226.270 C 125.295 229.152,125.365 229.430,125.674 229.659 C 125.841 229.782,125.982 230.059,125.989 230.273 C 126.023 231.393,126.727 233.489,127.290 234.149 C 127.795 234.742,127.806 234.829,127.344 234.562 C 126.839 234.272,126.832 234.316,127.294 234.886 C 127.589 235.249,127.711 235.547,127.565 235.547 C 127.419 235.547,127.573 235.938,127.908 236.415 C 128.242 236.893,128.516 237.561,128.516 237.900 C 128.516 238.728,129.413 240.618,129.808 240.622 C 129.982 240.624,130.023 240.789,129.899 240.989 C 129.776 241.189,129.856 241.464,130.078 241.602 C 130.300 241.739,130.380 242.014,130.257 242.214 C 130.133 242.414,130.218 242.578,130.446 242.578 C 130.673 242.578,130.859 242.848,130.859 243.177 C 130.859 243.975,132.693 247.561,133.598 248.532 C 133.994 248.957,134.230 249.533,134.123 249.812 C 134.015 250.094,134.289 250.435,134.737 250.577 C 135.261 250.743,135.547 251.166,135.547 251.775 C 135.547 252.955,136.767 255.001,137.353 254.803 C 137.601 254.720,137.771 255.045,137.743 255.550 C 137.717 256.043,137.880 256.413,138.106 256.374 C 138.332 256.334,138.740 256.660,139.014 257.098 C 139.341 257.622,139.358 257.800,139.063 257.617 C 138.767 257.435,138.784 257.612,139.111 258.136 C 139.385 258.574,139.793 258.900,140.019 258.861 C 140.245 258.821,140.486 259.283,140.556 259.886 C 140.625 260.490,140.932 261.080,141.239 261.198 C 141.546 261.315,141.797 261.662,141.797 261.968 C 141.797 262.274,142.061 262.626,142.383 262.749 C 142.705 262.873,142.969 263.199,142.969 263.473 C 142.969 263.748,143.407 264.260,143.943 264.611 C 144.479 264.962,144.874 265.451,144.822 265.698 C 144.769 265.945,145.092 266.339,145.539 266.573 C 145.986 266.807,146.279 267.217,146.190 267.484 C 146.101 267.750,146.317 267.969,146.670 267.969 C 147.023 267.969,147.204 268.144,147.071 268.358 C 146.939 268.572,147.280 268.951,147.830 269.202 C 148.379 269.452,148.850 269.804,148.877 269.985 C 148.904 270.165,148.948 270.472,148.975 270.668 C 149.057 271.269,156.023 278.119,156.555 278.122 C 156.831 278.124,157.154 278.382,157.275 278.696 C 157.395 279.010,157.832 279.374,158.245 279.505 C 158.658 279.637,158.902 279.895,158.788 280.079 C 158.674 280.264,158.760 280.525,158.978 280.660 C 159.196 280.795,159.375 280.727,159.375 280.510 C 159.375 280.292,159.814 280.553,160.352 281.090 C 160.889 281.627,161.328 282.245,161.328 282.463 C 161.328 282.680,161.495 282.755,161.699 282.629 C 161.903 282.503,162.260 282.754,162.492 283.188 C 162.724 283.621,163.346 284.084,163.876 284.217 C 164.405 284.350,164.753 284.597,164.648 284.766 C 164.543 284.936,164.729 285.179,165.062 285.306 C 165.460 285.459,165.581 285.373,165.417 285.054 C 165.280 284.788,165.706 285.186,166.363 285.938 C 167.106 286.788,167.566 287.083,167.581 286.719 C 167.597 286.312,167.851 286.429,168.412 287.104 C 168.856 287.638,169.434 288.078,169.695 288.081 C 169.956 288.084,170.478 288.394,170.855 288.770 C 171.232 289.146,171.802 289.453,172.121 289.453 C 172.441 289.453,172.594 289.629,172.461 289.844 C 172.244 290.195,172.757 290.404,173.535 290.281 C 173.696 290.255,173.828 290.429,173.828 290.667 C 173.828 290.905,174.090 290.999,174.409 290.876 C 174.745 290.747,174.951 290.853,174.898 291.127 C 174.847 291.388,175.116 291.549,175.497 291.485 C 175.878 291.421,176.443 291.596,176.753 291.875 C 178.065 293.056,178.444 293.301,178.649 293.096 C 178.768 292.977,179.334 293.249,179.908 293.700 C 180.482 294.151,181.108 294.424,181.299 294.306 C 181.490 294.188,181.923 294.367,182.261 294.705 C 182.599 295.043,183.045 295.215,183.252 295.087 C 183.459 294.959,183.876 295.061,184.180 295.313 C 184.483 295.564,184.919 295.654,185.149 295.512 C 185.378 295.371,185.518 295.487,185.459 295.772 C 185.396 296.075,185.634 296.242,186.035 296.174 C 186.411 296.111,186.719 296.243,186.719 296.467 C 186.719 296.692,186.905 296.875,187.132 296.875 C 187.360 296.875,187.437 296.699,187.305 296.484 C 187.172 296.270,187.249 296.094,187.477 296.094 C 187.704 296.094,187.891 296.337,187.891 296.634 C 187.891 297.300,189.525 297.781,189.873 297.218 C 190.026 296.971,190.226 297.071,190.379 297.469 C 190.526 297.852,190.875 298.034,191.214 297.904 C 191.535 297.781,191.797 297.851,191.797 298.059 C 191.797 298.267,192.104 298.435,192.480 298.432 C 193.065 298.426,193.079 298.370,192.578 298.047 C 192.256 297.839,192.154 297.666,192.352 297.662 C 192.550 297.659,193.064 297.964,193.493 298.340 C 193.923 298.716,194.148 298.806,193.992 298.540 C 193.801 298.213,193.906 298.131,194.316 298.288 C 194.649 298.416,194.922 298.700,194.922 298.918 C 194.922 299.136,195.219 299.073,195.583 298.778 C 196.130 298.334,196.189 298.333,195.925 298.772 C 195.670 299.195,195.863 299.246,196.875 299.023 C 197.603 298.864,198.052 298.894,197.927 299.096 C 197.808 299.289,198.091 299.476,198.557 299.511 C 199.251 299.563,199.299 299.501,198.823 299.165 C 198.366 298.841,198.408 298.814,199.023 299.035 C 199.453 299.189,200.244 299.365,200.781 299.425 C 201.318 299.485,202.620 299.667,203.674 299.829 C 204.907 300.018,205.506 299.986,205.353 299.738 C 205.198 299.488,205.960 299.469,207.531 299.684 C 210.093 300.034,210.938 299.911,210.938 299.189 C 210.938 298.945,210.679 298.844,210.364 298.965 C 210.049 299.086,209.689 299.021,209.566 298.821 C 209.442 298.621,208.825 298.517,208.195 298.590 C 207.565 298.663,207.144 298.571,207.259 298.385 C 207.448 298.080,206.881 297.977,204.492 297.882 C 204.063 297.865,203.535 297.742,203.320 297.609 C 203.105 297.476,202.375 297.388,201.697 297.414 C 201.020 297.440,200.547 297.329,200.646 297.168 C 200.815 296.896,200.319 296.799,198.182 296.687 C 197.719 296.662,197.060 296.410,196.717 296.125 C 196.374 295.840,196.094 295.738,196.094 295.898 C 196.094 296.058,195.796 295.948,195.433 295.653 C 194.864 295.192,194.814 295.199,195.071 295.703 C 195.244 296.042,195.134 296.001,194.810 295.605 C 194.502 295.229,194.120 294.922,193.961 294.922 C 193.241 294.922,191.045 293.628,191.237 293.317 C 191.356 293.125,191.276 292.969,191.060 292.969 C 190.844 292.969,189.931 292.182,189.030 291.221 C 188.129 290.260,187.285 289.524,187.153 289.586 C 186.915 289.698,184.910 287.783,185.071 287.598 C 185.118 287.544,185.054 287.544,184.929 287.598 C 184.804 287.651,184.480 287.279,184.207 286.771 C 183.795 286.000,183.672 285.951,183.470 286.478 C 183.337 286.825,183.398 287.109,183.606 287.109 C 183.814 287.109,183.984 287.395,183.984 287.743 C 183.984 288.289,184.075 288.302,184.633 287.841 C 185.227 287.350,185.236 287.379,184.731 288.190 C 184.222 289.008,184.143 289.025,183.691 288.409 C 183.423 288.042,183.203 287.884,183.203 288.059 C 183.203 288.234,182.912 288.136,182.557 287.841 C 182.202 287.546,181.856 287.393,181.789 287.500 C 181.721 287.607,181.344 287.420,180.951 287.083 C 180.558 286.746,180.025 286.541,179.766 286.627 C 179.508 286.713,179.297 286.516,179.297 286.188 C 179.297 285.861,179.094 285.468,178.846 285.314 C 178.554 285.134,178.502 285.208,178.698 285.525 C 178.935 285.910,178.822 285.920,178.172 285.572 C 177.717 285.328,177.344 285.037,177.344 284.924 C 177.344 284.812,177.547 284.845,177.795 284.998 C 178.083 285.176,178.139 285.105,177.951 284.800 C 177.789 284.538,177.556 284.423,177.433 284.546 C 177.311 284.668,176.787 284.491,176.269 284.151 C 175.751 283.812,175.084 283.628,174.786 283.742 C 173.729 284.148,173.852 283.273,175.011 282.139 C 175.854 281.315,176.019 280.971,175.594 280.924 C 175.267 280.889,174.736 280.830,174.414 280.794 C 174.092 280.758,173.828 280.616,173.828 280.477 C 173.828 280.110,171.503 278.449,170.856 278.354 C 170.553 278.310,170.087 278.029,169.820 277.730 C 169.422 277.283,169.444 277.253,169.940 277.558 C 170.273 277.762,170.097 277.515,169.550 277.008 C 169.002 276.501,168.818 276.206,169.141 276.353 C 169.623 276.573,169.619 276.529,169.116 276.103 C 168.781 275.819,168.391 275.278,168.250 274.902 C 168.066 274.413,167.563 274.219,166.478 274.219 C 165.002 274.219,163.007 273.061,163.549 272.519 C 163.688 272.380,163.597 272.266,163.346 272.266 C 163.096 272.266,162.891 271.973,162.891 271.615 C 162.891 271.257,162.779 271.075,162.643 271.211 C 162.294 271.561,161.036 269.864,160.724 268.622 C 160.580 268.048,160.305 267.578,160.114 267.578 C 159.922 267.578,159.766 267.392,159.766 267.164 C 159.766 266.937,159.941 266.859,160.155 266.991 C 160.411 267.149,160.419 266.902,160.180 266.273 C 159.980 265.746,159.921 265.209,160.051 265.079 C 160.180 264.950,160.176 264.844,160.041 264.844 C 159.906 264.844,159.425 265.239,158.971 265.723 C 158.517 266.206,158.179 266.426,158.221 266.211 C 158.381 265.373,158.185 264.809,157.813 265.039 C 157.598 265.172,157.422 264.996,157.422 264.648 C 157.422 264.265,157.242 264.128,156.965 264.299 C 156.662 264.486,156.588 264.372,156.746 263.960 C 157.013 263.264,156.160 262.346,155.664 262.796 C 155.488 262.956,155.461 262.762,155.603 262.366 C 155.785 261.862,155.651 261.591,155.158 261.462 C 154.771 261.361,154.218 260.894,153.929 260.424 L 153.405 259.570 154.299 260.352 C 154.885 260.863,154.678 260.390,153.700 258.984 C 152.114 256.705,151.222 255.628,151.758 256.641 C 151.980 257.060,151.943 257.113,151.631 256.828 C 151.391 256.608,151.140 256.081,151.074 255.656 C 151.008 255.231,150.824 254.675,150.666 254.422 C 150.507 254.168,150.584 253.833,150.835 253.678 C 151.121 253.501,151.188 253.564,151.014 253.846 C 150.838 254.131,151.031 254.297,151.539 254.297 C 152.521 254.297,152.601 253.589,151.660 253.231 C 151.284 253.088,150.655 252.565,150.262 252.068 C 149.869 251.571,149.387 251.263,149.192 251.384 C 148.997 251.504,148.953 251.301,149.094 250.933 C 149.257 250.508,149.199 250.357,148.935 250.520 C 148.078 251.050,148.042 249.510,148.895 248.770 C 149.734 248.042,149.737 248.009,149.020 247.352 C 148.315 246.707,148.308 246.711,148.850 247.461 C 149.366 248.176,149.358 248.198,148.754 247.725 C 148.390 247.441,148.168 247.002,148.258 246.749 C 148.349 246.496,148.060 245.850,147.615 245.313 C 147.171 244.775,146.938 244.583,147.097 244.885 C 147.288 245.246,147.233 245.338,146.935 245.154 C 146.687 245.001,146.484 244.447,146.484 243.922 C 146.484 243.398,146.298 242.969,146.071 242.969 C 145.843 242.969,145.766 242.793,145.898 242.578 C 146.031 242.363,145.969 242.188,145.761 242.188 C 145.552 242.188,145.429 241.753,145.487 241.222 C 145.546 240.691,145.478 240.328,145.337 240.415 C 144.882 240.696,144.031 239.946,144.304 239.505 C 144.646 238.951,146.094 239.809,146.094 240.565 C 146.094 240.887,146.334 241.007,146.700 240.867 C 147.048 240.733,147.204 240.799,147.068 241.020 C 146.936 241.232,147.005 241.406,147.220 241.406 C 148.003 241.406,148.148 240.493,147.446 239.980 C 147.050 239.690,146.869 239.453,147.043 239.453 C 147.218 239.453,147.120 239.156,146.825 238.792 C 146.409 238.279,146.404 238.200,146.804 238.441 C 147.384 238.790,145.725 235.385,144.729 234.180 C 144.373 233.750,144.194 233.618,144.330 233.887 C 144.684 234.586,144.329 234.489,143.700 233.714 C 143.336 233.265,143.321 233.147,143.652 233.347 C 143.921 233.508,144.141 233.475,144.141 233.274 C 144.141 232.671,143.049 231.953,142.038 231.893 C 141.517 231.862,141.172 231.704,141.271 231.543 C 141.523 231.136,141.100 231.177,140.225 231.646 C 139.639 231.959,139.399 231.879,139.067 231.259 C 138.837 230.829,138.449 230.519,138.205 230.570 C 137.961 230.622,137.633 230.072,137.475 229.349 C 137.318 228.626,136.796 227.503,136.315 226.852 C 135.834 226.202,135.668 225.810,135.945 225.981 C 136.532 226.344,136.188 225.640,135.194 224.445 C 134.681 223.827,134.674 223.752,135.156 224.023 C 135.510 224.223,135.433 223.990,134.961 223.438 C 134.531 222.934,134.427 222.668,134.730 222.845 C 135.160 223.099,135.228 222.966,135.042 222.229 C 134.815 221.330,134.829 221.322,135.371 222.047 C 135.683 222.464,135.938 222.673,135.938 222.510 C 135.938 222.062,135.100 220.591,134.509 220.000 C 134.220 219.711,133.970 219.268,133.952 219.015 C 133.934 218.762,133.868 218.115,133.805 217.578 C 133.743 217.041,133.867 216.382,134.081 216.113 C 134.343 215.785,134.330 215.455,134.041 215.108 C 133.727 214.729,133.740 214.463,134.088 214.115 C 134.426 213.778,134.440 213.559,134.137 213.363 C 133.593 213.009,132.600 211.151,133.131 211.479 C 133.380 211.633,133.364 211.289,133.089 210.561 C 132.847 209.921,132.535 209.583,132.395 209.809 C 132.236 210.066,132.050 209.987,131.903 209.603 C 131.772 209.263,131.835 208.984,132.044 208.984 C 132.252 208.984,132.422 208.798,132.422 208.571 C 132.422 208.343,132.281 208.244,132.108 208.351 C 131.935 208.458,131.776 207.809,131.754 206.909 C 131.732 206.010,131.672 205.273,131.621 205.273 C 131.569 205.273,131.501 203.220,131.468 200.710 C 131.436 198.200,131.531 196.221,131.679 196.313 C 131.828 196.405,131.914 195.261,131.872 193.772 C 131.830 192.283,131.942 191.156,132.121 191.266 C 132.300 191.377,132.371 190.795,132.279 189.972 C 132.186 189.150,132.290 188.257,132.509 187.988 C 132.784 187.652,132.766 187.328,132.451 186.949 C 132.153 186.590,132.131 186.313,132.386 186.155 C 132.602 186.022,132.679 185.652,132.556 185.334 C 132.434 185.016,132.538 184.510,132.788 184.209 C 133.103 183.829,133.115 183.585,132.825 183.406 C 132.596 183.265,132.539 182.942,132.697 182.688 C 132.992 182.215,133.118 181.444,133.350 178.707 C 133.422 177.845,133.614 176.724,133.775 176.216 C 134.002 175.500,133.949 175.360,133.538 175.594 C 133.110 175.837,133.102 175.794,133.496 175.370 C 133.765 175.080,133.984 174.527,133.984 174.141 C 133.984 173.754,134.122 173.438,134.291 173.438 C 134.459 173.438,134.911 172.866,135.295 172.168 C 135.792 171.263,135.817 171.116,135.379 171.657 C 135.042 172.074,134.766 172.231,134.766 172.007 C 134.766 171.782,135.208 171.121,135.749 170.538 C 136.289 169.955,136.615 169.290,136.474 169.060 C 136.332 168.831,136.637 168.319,137.151 167.924 C 137.665 167.528,137.856 167.201,137.575 167.196 C 137.293 167.191,137.174 167.009,137.309 166.791 C 137.444 166.572,137.716 166.493,137.913 166.615 C 138.112 166.738,138.157 166.538,138.015 166.167 C 137.842 165.715,137.905 165.588,138.210 165.777 C 138.515 165.965,138.579 165.838,138.406 165.386 C 138.232 164.934,138.296 164.807,138.601 164.995 C 138.906 165.184,138.970 165.056,138.796 164.605 C 138.623 164.153,138.687 164.026,138.992 164.214 C 139.297 164.403,139.360 164.275,139.187 163.823 C 138.999 163.333,139.068 163.239,139.447 163.473 C 139.801 163.692,139.872 163.642,139.670 163.316 C 139.500 163.041,139.649 162.638,140.023 162.365 C 140.738 161.842,140.273 159.766,139.441 159.766 C 139.196 159.766,139.304 159.283,139.697 158.617 C 140.070 157.986,140.563 157.502,140.793 157.543 C 141.023 157.584,141.165 157.393,141.110 157.118 C 141.054 156.844,141.274 156.517,141.598 156.393 C 141.922 156.268,142.188 155.922,142.188 155.622 C 142.188 155.323,142.451 155.078,142.773 155.078 C 143.105 155.078,143.359 154.728,143.359 154.274 C 143.359 153.831,143.535 153.578,143.750 153.711 C 143.965 153.844,144.141 153.707,144.141 153.406 C 144.141 153.106,144.590 152.655,145.139 152.405 C 145.688 152.155,146.056 151.817,145.955 151.654 C 145.855 151.492,146.020 151.019,146.324 150.605 C 146.627 150.190,146.875 149.959,146.875 150.092 C 146.875 150.224,147.886 149.266,149.121 147.963 C 150.356 146.659,151.895 145.267,152.539 144.868 C 153.184 144.470,153.481 144.143,153.200 144.142 C 152.918 144.141,152.799 143.962,152.934 143.744 C 153.069 143.525,153.334 143.442,153.523 143.559 C 153.712 143.676,154.054 143.422,154.283 142.994 C 154.554 142.489,154.926 142.304,155.347 142.465 C 155.810 142.643,155.932 142.550,155.775 142.140 C 155.630 141.763,155.819 141.546,156.324 141.508 C 157.281 141.436,158.206 140.699,158.093 140.099 C 158.046 139.851,158.315 139.700,158.691 139.763 C 159.067 139.826,159.375 139.684,159.375 139.447 C 159.375 139.210,159.551 139.125,159.766 139.258 C 159.980 139.391,160.156 139.231,160.156 138.903 C 160.156 138.506,160.375 138.390,160.806 138.555 C 161.260 138.729,161.366 138.658,161.158 138.322 C 160.973 138.022,161.060 137.866,161.387 137.911 C 162.552 138.071,163.706 137.871,163.503 137.543 C 163.385 137.352,163.923 137.282,164.699 137.386 C 165.662 137.516,166.025 137.440,165.844 137.148 C 165.698 136.912,165.745 136.719,165.947 136.719 C 166.149 136.719,166.412 136.350,166.530 135.898 C 166.648 135.446,166.932 135.193,167.161 135.335 C 167.391 135.477,167.578 135.407,167.578 135.179 C 167.578 134.555,166.883 134.682,166.097 135.449 C 165.711 135.825,165.052 136.194,164.632 136.268 C 164.107 136.361,164.323 136.041,165.320 135.247 C 166.118 134.610,166.660 133.978,166.524 133.842 C 166.388 133.705,166.651 133.594,167.110 133.594 C 167.656 133.594,167.873 133.409,167.739 133.058 C 167.626 132.764,167.816 132.414,168.162 132.281 C 168.582 132.120,168.709 132.201,168.546 132.524 C 168.411 132.790,168.535 132.744,168.820 132.422 C 169.105 132.100,169.602 131.779,169.923 131.709 C 170.245 131.639,170.566 131.419,170.638 131.221 C 170.710 131.022,171.009 130.859,171.302 130.859 C 171.596 130.859,172.015 130.552,172.234 130.176 C 172.502 129.717,172.636 129.667,172.644 130.025 C 172.654 130.443,172.877 130.414,173.675 129.891 C 174.382 129.428,174.817 129.349,175.101 129.632 C 175.384 129.915,175.905 129.874,176.808 129.496 C 177.632 129.152,178.195 129.095,178.347 129.339 C 178.499 129.585,178.785 129.559,179.136 129.268 C 179.439 129.016,179.688 128.920,179.688 129.054 C 179.688 129.187,180.045 128.939,180.483 128.501 C 180.921 128.064,181.448 127.811,181.655 127.938 C 181.862 128.066,182.031 127.977,182.031 127.740 C 182.031 127.458,181.555 127.398,180.659 127.566 C 179.519 127.780,179.327 127.721,179.520 127.217 C 179.648 126.884,180.008 126.710,180.320 126.830 C 180.633 126.950,181.264 126.719,181.722 126.317 C 182.181 125.915,182.426 125.809,182.267 126.081 C 182.072 126.413,182.430 126.360,183.355 125.919 C 184.112 125.558,184.641 125.115,184.531 124.936 C 184.420 124.756,184.691 124.609,185.133 124.609 C 185.576 124.609,185.894 124.398,185.840 124.139 C 185.786 123.881,186.006 123.651,186.328 123.628 C 187.388 123.553,189.472 122.416,189.167 122.079 C 189.002 121.898,189.076 121.869,189.330 122.015 C 189.951 122.371,193.112 121.639,193.293 121.099 C 193.394 120.795,193.594 120.803,193.983 121.125 C 194.401 121.472,194.531 121.470,194.531 121.119 C 194.531 120.865,194.715 120.770,194.939 120.909 C 195.163 121.048,195.636 120.926,195.991 120.639 C 196.450 120.267,196.550 120.257,196.341 120.605 C 195.935 121.280,196.387 121.888,197.093 121.617 C 197.510 121.457,197.561 121.254,197.272 120.906 C 196.962 120.533,197.105 120.465,197.884 120.614 C 198.625 120.755,198.758 120.898,198.376 121.140 C 198.021 121.365,198.002 121.474,198.317 121.478 C 198.573 121.482,198.886 121.316,199.013 121.111 C 199.140 120.905,199.504 120.837,199.822 120.959 C 200.140 121.081,200.696 120.942,201.057 120.649 C 201.614 120.197,201.663 120.200,201.382 120.666 C 201.140 121.068,201.193 121.127,201.580 120.888 C 201.871 120.708,202.469 120.532,202.910 120.496 C 203.350 120.460,204.063 120.300,204.492 120.140 C 205.116 119.907,205.156 119.933,204.688 120.270 C 204.249 120.585,204.909 120.693,207.301 120.697 C 209.118 120.701,210.610 120.526,210.754 120.294 C 210.927 120.013,211.181 120.028,211.556 120.340 C 211.858 120.590,212.458 120.703,212.888 120.591 C 213.319 120.478,213.770 120.546,213.891 120.741 C 214.018 120.947,214.448 120.915,214.915 120.665 C 215.507 120.348,215.648 120.350,215.448 120.673 C 215.256 120.983,215.672 121.050,216.866 120.901 C 218.164 120.739,218.374 120.782,217.773 121.086 C 217.134 121.410,217.216 121.443,218.225 121.265 C 218.902 121.146,219.562 121.218,219.690 121.425 C 219.818 121.632,220.274 121.710,220.704 121.597 C 221.140 121.483,221.484 121.586,221.484 121.829 C 221.484 122.069,222.001 122.266,222.633 122.266 C 223.265 122.266,223.891 122.442,224.024 122.658 C 224.158 122.873,224.722 122.936,225.278 122.796 C 226.054 122.601,226.215 122.662,225.971 123.056 C 225.741 123.428,225.833 123.501,226.303 123.321 C 226.661 123.183,226.953 123.260,226.953 123.492 C 226.953 123.723,227.217 123.811,227.539 123.687 C 227.861 123.563,228.125 123.613,228.125 123.799 C 228.125 123.984,228.398 124.240,228.731 124.368 C 229.075 124.500,229.235 124.435,229.102 124.219 C 228.968 124.002,229.128 123.938,229.472 124.070 C 229.805 124.198,230.078 124.454,230.078 124.639 C 230.078 124.824,230.371 124.863,230.728 124.726 C 231.165 124.558,231.286 124.626,231.096 124.934 C 230.919 125.219,231.082 125.391,231.527 125.391 C 231.919 125.391,232.887 125.830,233.678 126.367 C 234.468 126.904,235.237 127.344,235.385 127.344 C 235.534 127.344,235.890 127.651,236.175 128.027 C 236.596 128.582,236.697 128.600,236.712 128.125 C 236.723 127.789,236.945 127.955,237.234 128.516 C 237.531 129.091,238.013 129.444,238.407 129.376 C 238.774 129.312,239.028 129.473,238.971 129.735 C 238.914 129.996,239.292 130.431,239.812 130.701 C 240.332 130.971,240.914 131.473,241.106 131.815 C 241.297 132.158,241.663 132.319,241.919 132.172 C 242.174 132.026,242.251 132.052,242.089 132.230 C 241.745 132.609,242.882 133.984,243.539 133.984 C 243.785 133.984,244.593 134.642,245.334 135.446 C 246.269 136.461,246.373 136.669,245.677 136.129 C 245.125 135.701,245.433 136.083,246.360 136.978 C 247.288 137.872,248.047 138.719,248.047 138.861 C 248.047 139.212,249.289 140.430,249.647 140.430 C 249.805 140.430,250.081 140.590,250.260 140.785 C 250.450 140.992,250.381 141.023,250.098 140.860 C 249.214 140.351,249.589 141.281,250.563 142.013 C 251.087 142.406,251.428 142.870,251.321 143.044 C 251.214 143.217,251.444 143.362,251.832 143.365 C 252.432 143.370,252.450 143.429,251.953 143.750 C 251.400 144.107,251.441 144.168,252.311 144.287 C 252.892 144.366,253.299 144.922,252.776 144.922 C 252.513 144.922,252.408 145.101,252.543 145.319 C 252.678 145.537,252.940 145.622,253.125 145.508 C 253.310 145.393,253.589 145.506,253.744 145.757 C 253.921 146.043,253.858 146.110,253.576 145.936 C 253.016 145.589,253.002 145.915,253.535 146.912 C 253.761 147.333,254.140 147.558,254.377 147.412 C 254.638 147.250,254.698 147.324,254.528 147.599 C 254.373 147.849,254.517 148.323,254.848 148.653 C 255.178 148.984,255.633 149.942,255.860 150.782 C 256.086 151.623,256.442 152.416,256.651 152.546 C 256.860 152.675,257.031 153.058,257.031 153.398 C 257.031 153.738,257.339 154.268,257.715 154.576 C 258.110 154.900,258.151 155.010,257.813 154.837 C 257.308 154.579,257.301 154.629,257.763 155.198 C 258.058 155.562,258.168 155.859,258.008 155.859 C 257.848 155.859,257.913 156.095,258.152 156.384 C 258.391 156.672,258.471 157.023,258.330 157.165 C 258.189 157.306,258.288 157.422,258.552 157.422 C 258.815 157.422,258.922 157.598,258.789 157.813 C 258.656 158.027,258.737 158.203,258.969 158.203 C 259.205 158.203,259.312 158.632,259.213 159.180 C 259.116 159.717,259.190 160.156,259.378 160.156 C 259.567 160.156,259.653 160.508,259.570 160.938 C 259.488 161.367,259.542 161.719,259.690 161.720 C 259.839 161.721,260.012 162.732,260.074 163.966 C 260.200 166.480,260.473 167.670,260.868 167.426 C 261.219 167.209,261.212 185.621,260.860 186.160 C 260.710 186.390,260.502 187.051,260.397 187.628 C 260.292 188.206,260.096 189.029,259.960 189.456 C 259.813 189.919,259.891 190.234,260.153 190.234 C 260.395 190.234,260.510 190.101,260.409 189.937 C 260.308 189.774,260.474 189.301,260.777 188.886 C 261.927 187.312,260.783 193.110,259.375 195.990 C 258.959 196.840,258.819 197.520,259.043 197.600 C 259.256 197.677,259.066 197.995,258.621 198.306 C 258.176 198.618,257.813 199.116,257.813 199.413 C 257.813 199.711,257.610 200.079,257.362 200.233 C 257.082 200.405,257.017 200.340,257.189 200.060 C 257.538 199.496,257.322 199.494,256.104 200.049 C 255.472 200.336,255.220 200.695,255.371 201.089 C 255.517 201.471,255.442 201.592,255.164 201.420 C 254.726 201.150,254.395 202.520,254.350 204.785 C 254.317 206.499,254.191 207.031,253.818 207.031 C 253.626 207.031,253.595 207.234,253.748 207.482 C 253.918 207.757,253.856 207.827,253.589 207.662 C 253.348 207.513,252.927 207.750,252.653 208.188 C 252.380 208.626,251.939 208.984,251.674 208.984 C 251.409 208.984,250.919 209.512,250.586 210.156 C 250.253 210.801,249.886 211.328,249.772 211.328 C 249.657 211.328,249.675 211.108,249.811 210.840 C 249.948 210.571,249.710 210.747,249.284 211.230 C 248.857 211.714,248.316 212.109,248.082 212.109 C 247.848 212.109,247.656 212.271,247.656 212.468 C 247.656 212.665,247.085 213.185,246.387 213.622 C 245.688 214.059,244.675 214.834,244.134 215.343 C 241.755 217.584,239.418 218.327,241.406 216.211 C 242.351 215.205,242.305 214.408,241.355 215.319 C 241.061 215.601,240.073 216.415,239.160 217.128 C 238.247 217.841,237.500 218.703,237.500 219.043 C 237.500 219.383,237.387 219.549,237.250 219.411 C 236.991 219.152,234.766 220.310,234.766 220.704 C 234.766 220.917,234.491 220.967,231.836 221.241 C 230.712 221.358,230.026 221.559,228.320 222.273 C 227.445 222.640,224.572 223.214,224.121 223.113 C 223.960 223.076,223.828 223.179,223.828 223.340 C 223.828 223.501,222.175 223.633,220.154 223.633 C 218.134 223.633,216.571 223.487,216.681 223.308 C 216.792 223.129,216.555 223.037,216.156 223.103 C 215.757 223.169,215.183 223.068,214.881 222.879 C 214.472 222.623,214.417 222.675,214.663 223.084 C 214.945 223.551,214.896 223.553,214.333 223.097 C 213.969 222.802,213.672 222.692,213.672 222.852 C 213.672 223.012,213.374 222.901,213.011 222.606 C 212.647 222.312,212.473 222.275,212.622 222.524 C 212.933 223.043,211.915 223.000,211.437 222.475 C 211.270 222.291,211.380 222.284,211.681 222.459 C 212.039 222.666,212.138 222.628,211.966 222.350 C 211.821 222.115,211.357 221.989,210.935 222.071 C 210.514 222.152,210.018 221.950,209.834 221.621 C 209.651 221.293,209.379 221.050,209.231 221.082 C 208.833 221.168,204.514 219.025,204.362 218.667 C 204.290 218.498,203.904 218.359,203.502 218.359 C 203.101 218.359,202.633 218.111,202.461 217.806 C 201.906 216.824,199.139 214.847,198.684 215.107 C 198.441 215.246,198.351 215.238,198.483 215.089 C 198.721 214.821,196.140 211.952,195.638 211.927 C 195.495 211.920,195.231 211.754,195.052 211.558 C 194.860 211.349,194.947 211.331,195.266 211.515 C 195.636 211.730,195.743 211.658,195.607 211.285 C 195.499 210.986,195.212 210.786,194.971 210.840 C 194.729 210.894,194.531 210.663,194.531 210.329 C 194.531 209.994,194.357 209.827,194.145 209.958 C 193.915 210.100,193.861 209.913,194.012 209.493 C 194.151 209.106,194.118 208.922,193.939 209.085 C 193.529 209.458,192.149 207.410,192.465 206.898 C 192.594 206.690,192.504 206.640,192.266 206.787 C 191.998 206.953,191.682 206.495,191.434 205.578 C 191.215 204.766,190.800 203.750,190.513 203.320 C 190.227 202.891,189.757 201.798,189.469 200.892 C 189.181 199.986,188.821 199.322,188.669 199.416 C 188.516 199.510,188.439 199.153,188.497 198.622 C 188.555 198.091,188.448 197.656,188.259 197.656 C 188.070 197.656,188.027 197.364,188.165 197.006 C 188.309 196.630,188.254 196.455,188.034 196.591 C 187.812 196.728,187.690 196.308,187.740 195.582 C 187.787 194.898,187.621 194.084,187.370 193.774 C 187.001 193.317,187.026 193.275,187.500 193.555 C 187.992 193.844,188.006 193.801,187.587 193.284 C 187.313 192.946,187.065 192.038,187.036 191.268 C 186.993 190.106,186.906 189.972,186.532 190.484 C 186.177 190.969,186.116 190.611,186.245 188.812 C 186.336 187.553,186.435 185.952,186.466 185.254 C 186.498 184.556,186.699 183.982,186.914 183.979 C 187.129 183.975,187.041 183.799,186.719 183.588 C 186.198 183.246,186.198 183.160,186.719 182.818 C 187.041 182.607,187.151 182.431,186.964 182.428 C 186.776 182.425,186.840 182.160,187.105 181.841 C 187.370 181.521,187.485 180.994,187.361 180.669 C 187.236 180.344,187.299 180.078,187.500 180.078 C 187.701 180.078,187.765 179.814,187.641 179.492 C 187.518 179.170,187.621 178.906,187.872 178.906 C 188.122 178.906,188.219 178.730,188.086 178.516 C 187.953 178.301,188.025 178.125,188.246 178.125 C 188.467 178.125,188.555 177.884,188.442 177.589 C 188.329 177.295,188.521 176.945,188.869 176.811 C 189.218 176.677,189.381 176.371,189.233 176.131 C 189.084 175.891,189.184 175.557,189.454 175.390 C 189.725 175.223,189.967 174.671,189.993 174.164 C 190.018 173.657,190.244 173.242,190.495 173.242 C 190.745 173.242,191.097 173.082,191.276 172.887 C 191.465 172.680,191.397 172.649,191.113 172.812 C 190.845 172.967,190.625 172.927,190.625 172.725 C 190.625 172.522,191.021 172.248,191.504 172.116 C 192.131 171.944,192.242 171.784,191.892 171.557 C 191.527 171.321,191.643 171.029,192.347 170.417 C 192.867 169.965,193.410 169.712,193.554 169.856 C 193.698 170.000,193.757 169.941,193.686 169.727 C 193.445 168.995,195.717 166.436,196.382 166.691 C 196.794 166.849,196.908 166.776,196.721 166.473 C 196.553 166.201,196.677 166.016,197.025 166.016 C 197.348 166.016,197.886 165.625,198.220 165.147 C 198.554 164.670,198.828 164.440,198.828 164.636 C 198.828 164.832,199.086 164.652,199.402 164.235 C 199.717 163.818,199.981 163.642,199.988 163.844 C 199.994 164.046,200.277 163.871,200.615 163.454 C 200.953 163.037,201.117 162.918,200.978 163.190 C 200.806 163.529,201.162 163.478,202.105 163.028 C 202.862 162.667,203.391 162.224,203.281 162.045 C 203.170 161.866,203.539 161.719,204.102 161.719 C 204.676 161.719,205.020 161.549,204.886 161.333 C 204.749 161.111,204.906 161.046,205.253 161.179 C 205.587 161.307,205.859 161.223,205.859 160.992 C 205.859 160.760,206.123 160.673,206.445 160.796 C 206.768 160.920,207.031 160.826,207.031 160.589 C 207.031 160.351,207.217 160.156,207.445 160.156 C 207.672 160.156,207.727 160.376,207.565 160.645 C 207.331 161.034,207.393 161.035,207.871 160.648 C 208.201 160.381,208.582 160.274,208.718 160.411 C 208.854 160.547,209.233 160.436,209.561 160.164 C 209.888 159.892,210.159 159.823,210.162 160.011 C 210.166 160.198,210.339 160.088,210.547 159.766 C 210.755 159.443,210.928 159.377,210.932 159.618 C 210.936 159.926,211.471 159.956,212.749 159.717 C 214.665 159.359,217.978 159.484,218.719 159.942 C 218.962 160.092,219.727 160.184,220.420 160.146 C 222.998 160.005,223.828 160.150,223.828 160.742 C 223.828 161.064,224.092 161.350,224.414 161.377 C 224.990 161.425,225.495 161.528,226.074 161.716 C 226.235 161.768,226.499 161.790,226.660 161.765 C 226.821 161.740,226.953 161.905,226.953 162.132 C 226.953 162.360,227.129 162.437,227.344 162.305 C 227.559 162.172,227.734 162.209,227.734 162.388 C 227.734 162.906,230.528 164.268,231.315 164.135 C 231.812 164.051,232.031 164.254,232.031 164.796 C 232.031 165.578,232.576 166.123,233.496 166.263 C 233.765 166.304,233.984 166.177,233.984 165.981 C 233.984 165.785,233.731 165.625,233.421 165.625 C 233.112 165.625,232.733 165.422,232.580 165.174 C 232.393 164.871,232.475 164.830,232.829 165.049 C 233.119 165.229,232.951 164.805,232.454 164.108 C 231.938 163.383,231.326 162.928,231.023 163.044 C 230.732 163.156,230.373 163.052,230.226 162.813 C 230.049 162.528,230.146 162.488,230.506 162.696 C 230.808 162.870,230.283 162.286,229.341 161.399 C 228.398 160.512,227.475 159.880,227.290 159.994 C 227.105 160.109,226.953 160.024,226.953 159.807 C 226.953 159.359,223.809 157.877,222.136 157.537 C 221.344 157.375,221.178 157.218,221.551 156.982 C 221.951 156.728,221.914 156.640,221.387 156.598 C 220.358 156.515,220.162 156.462,219.612 156.113 C 219.331 155.935,218.891 155.971,218.622 156.194 C 218.290 156.470,217.958 156.469,217.565 156.191 C 217.099 155.861,217.123 155.828,217.696 156.013 C 218.106 156.146,218.301 156.081,218.163 155.857 C 218.032 155.646,217.242 155.528,216.407 155.594 C 215.571 155.660,214.977 155.569,215.086 155.392 C 215.196 155.215,213.869 155.091,212.138 155.117 C 210.407 155.142,209.077 155.302,209.182 155.472 C 209.287 155.642,208.758 155.724,208.007 155.654 C 207.255 155.585,206.641 155.661,206.641 155.823 C 206.641 155.986,206.247 156.090,205.765 156.055 C 204.348 155.951,202.384 156.709,201.282 157.786 C 200.718 158.338,200.384 158.569,200.542 158.301 C 200.699 158.032,200.737 157.813,200.627 157.813 C 200.330 157.813,198.273 158.741,198.047 158.977 C 197.939 159.089,197.368 159.430,196.777 159.735 C 196.187 160.039,195.703 160.533,195.703 160.831 C 195.703 161.130,195.556 161.283,195.376 161.172 C 194.947 160.907,193.291 162.073,193.535 162.468 C 193.639 162.636,193.311 162.993,192.807 163.263 C 192.304 163.533,191.135 164.895,190.211 166.291 C 189.286 167.687,188.310 168.913,188.041 169.017 C 187.422 169.254,184.375 174.263,184.375 175.043 C 184.375 175.363,184.164 175.836,183.906 176.094 C 183.542 176.458,183.558 176.563,183.981 176.563 C 184.347 176.562,184.278 176.749,183.766 177.136 C 183.184 177.576,183.144 177.715,183.594 177.734 C 184.057 177.753,184.037 177.841,183.496 178.156 C 183.120 178.375,182.813 178.799,182.813 179.099 C 182.813 179.398,182.474 180.224,182.060 180.935 C 180.442 183.711,180.106 198.661,181.640 199.609 C 181.850 199.738,182.079 200.363,182.151 200.996 C 182.222 201.630,182.518 202.588,182.808 203.125 C 183.098 203.662,183.299 204.189,183.254 204.297 C 183.048 204.791,184.555 207.422,185.043 207.422 C 185.346 207.422,185.497 207.578,185.379 207.768 C 185.261 207.959,185.416 208.323,185.723 208.578 C 186.030 208.833,186.174 209.321,186.043 209.663 C 185.883 210.081,185.957 210.190,186.271 209.996 C 186.528 209.837,186.713 209.852,186.682 210.030 C 186.534 210.883,186.773 211.283,187.309 211.077 C 187.726 210.917,187.831 211.030,187.666 211.460 C 187.428 212.079,193.979 218.959,194.658 218.804 C 194.835 218.764,194.881 218.891,194.760 219.087 C 194.639 219.283,194.835 219.682,195.196 219.975 C 195.717 220.397,195.789 220.401,195.542 219.991 C 195.286 219.566,195.373 219.562,196.027 219.971 C 196.465 220.244,196.791 220.641,196.751 220.852 C 196.712 221.064,197.174 221.483,197.779 221.785 C 198.384 222.086,198.974 222.581,199.090 222.885 C 199.207 223.189,199.625 223.438,200.019 223.438 C 200.413 223.438,200.861 223.640,201.014 223.888 C 201.203 224.195,201.116 224.233,200.744 224.009 C 200.283 223.731,200.278 223.780,200.712 224.316 C 200.996 224.667,201.457 224.866,201.737 224.759 C 202.097 224.620,202.189 224.851,202.055 225.554 C 201.831 226.724,200.597 226.736,199.749 225.576 C 199.458 225.177,199.213 225.016,199.207 225.218 C 199.200 225.421,199.020 225.286,198.806 224.919 C 198.585 224.540,198.161 224.349,197.825 224.478 C 197.500 224.603,197.285 224.525,197.347 224.306 C 197.410 224.086,197.320 223.896,197.147 223.884 C 196.974 223.872,196.496 223.459,196.086 222.966 C 195.675 222.474,195.333 222.226,195.325 222.416 C 195.318 222.606,194.947 222.297,194.500 221.729 C 194.053 221.161,193.521 220.798,193.318 220.924 C 193.115 221.049,192.998 220.981,193.057 220.771 C 193.116 220.562,193.039 220.417,192.887 220.449 C 192.735 220.481,192.160 219.898,191.610 219.152 C 190.502 217.650,189.473 216.892,189.604 217.676 C 189.737 218.462,190.778 219.922,191.207 219.922 C 191.424 219.922,191.627 220.363,191.658 220.901 C 191.712 221.840,191.672 221.825,190.636 220.522 C 190.043 219.776,189.419 219.292,189.248 219.446 C 189.077 219.600,189.062 219.510,189.214 219.244 C 189.473 218.794,186.921 215.820,186.276 215.820 C 186.126 215.820,185.856 215.660,185.677 215.465 C 185.488 215.258,185.556 215.227,185.840 215.390 C 186.830 215.960,186.291 214.870,185.197 214.092 C 184.381 213.511,184.016 213.422,183.887 213.772 C 183.590 214.582,183.997 215.205,184.658 214.951 C 185.148 214.763,185.233 214.899,185.054 215.583 C 184.908 216.143,185.025 216.530,185.382 216.667 C 185.687 216.785,185.938 217.024,185.938 217.200 C 185.938 217.657,192.054 223.828,192.507 223.828 C 192.715 223.828,192.986 224.092,193.110 224.414 C 193.234 224.736,193.686 225.000,194.115 225.000 C 194.543 225.000,195.085 225.356,195.318 225.792 C 195.552 226.228,195.891 226.493,196.072 226.380 C 196.254 226.268,196.513 226.464,196.648 226.816 C 196.783 227.168,197.004 227.345,197.139 227.210 C 197.273 227.076,197.615 227.270,197.898 227.643 C 198.192 228.029,198.418 228.118,198.425 227.850 C 198.432 227.591,198.878 227.820,199.417 228.359 C 199.956 228.898,200.571 229.231,200.785 229.100 C 200.998 228.968,201.172 229.065,201.172 229.316 C 201.172 229.566,201.421 229.675,201.725 229.559 C 202.030 229.442,202.375 229.596,202.492 229.901 C 202.610 230.209,202.970 230.354,203.302 230.226 C 203.651 230.092,204.000 230.257,204.140 230.624 C 204.272 230.968,204.548 231.250,204.752 231.250 C 204.957 231.250,205.013 231.030,204.877 230.762 C 204.741 230.493,204.906 230.615,205.244 231.032 C 205.592 231.461,205.859 231.578,205.859 231.302 C 205.859 231.033,206.038 230.924,206.256 231.059 C 206.475 231.194,206.553 231.466,206.431 231.663 C 206.309 231.861,206.482 231.918,206.816 231.790 C 207.149 231.662,207.422 231.752,207.422 231.989 C 207.422 232.227,207.608 232.422,207.836 232.422 C 208.063 232.422,208.141 232.246,208.008 232.031 C 207.875 231.816,207.953 231.641,208.180 231.641 C 208.408 231.641,208.594 231.904,208.594 232.227 C 208.594 232.795,209.232 232.997,210.645 232.879 C 211.021 232.847,211.331 233.039,211.334 233.305 C 211.338 233.622,211.471 233.586,211.719 233.203 C 211.994 232.777,212.099 232.757,212.103 233.129 C 212.107 233.410,212.293 233.526,212.517 233.388 C 212.741 233.249,213.215 233.371,213.569 233.658 C 214.118 234.103,214.164 234.094,213.885 233.594 C 213.628 233.134,213.664 233.107,214.053 233.466 C 214.325 233.717,214.819 233.819,215.151 233.692 C 215.568 233.532,215.659 233.613,215.447 233.957 C 215.206 234.346,215.314 234.360,215.945 234.022 C 216.387 233.785,216.839 233.736,216.948 233.913 C 217.276 234.443,221.937 234.419,222.586 233.883 C 223.048 233.502,223.208 233.501,223.335 233.877 C 223.455 234.232,223.738 234.196,224.443 233.734 C 225.076 233.319,225.391 233.265,225.391 233.572 C 225.391 233.844,225.589 233.904,225.879 233.720 C 226.359 233.416,226.567 233.349,227.344 233.252 C 227.559 233.225,227.734 233.055,227.734 232.874 C 227.734 232.589,224.557 232.422,216.152 232.264 C 215.045 232.244,214.220 232.095,214.319 231.934 C 214.489 231.658,213.409 231.503,211.438 231.520 C 210.961 231.524,210.651 231.397,210.750 231.238 C 210.848 231.079,210.579 230.857,210.151 230.745 C 209.633 230.609,209.462 230.692,209.637 230.993 C 209.782 231.242,209.488 231.094,208.984 230.664 C 208.425 230.186,208.194 230.111,208.392 230.469 C 208.569 230.791,208.133 230.527,207.422 229.883 C 206.711 229.238,206.276 228.975,206.455 229.297 C 206.635 229.619,206.227 229.298,205.550 228.584 C 204.873 227.869,204.156 227.385,203.958 227.507 C 203.760 227.630,203.491 227.453,203.361 227.114 C 203.014 226.211,203.072 225.781,203.539 225.781 C 203.766 225.781,203.843 225.959,203.709 226.175 C 203.361 226.738,205.196 227.364,205.560 226.806 C 205.760 226.500,205.849 226.522,205.853 226.879 C 205.857 227.160,206.035 227.281,206.250 227.148 C 206.465 227.016,206.641 227.088,206.641 227.308 C 206.641 227.529,206.904 227.609,207.227 227.485 C 207.549 227.361,207.813 227.473,207.813 227.735 C 207.813 228.051,208.152 228.125,208.826 227.955 C 209.404 227.810,210.076 227.897,210.389 228.156 C 210.691 228.406,210.938 228.480,210.938 228.320 C 210.938 228.160,211.235 228.271,211.598 228.565 C 212.143 229.007,212.203 229.008,211.941 228.573 C 211.746 228.250,212.053 228.325,212.730 228.768 C 213.339 229.166,213.720 229.302,213.576 229.069 C 213.433 228.836,213.564 228.646,213.867 228.646 C 214.171 228.646,214.311 228.820,214.180 229.033 C 214.034 229.269,214.294 229.328,214.846 229.183 C 215.344 229.053,216.064 229.114,216.446 229.318 C 216.894 229.558,217.226 229.550,217.383 229.297 C 217.545 229.034,217.868 229.034,218.357 229.296 C 219.315 229.808,223.483 229.799,224.843 229.282 C 225.448 229.052,226.055 229.024,226.249 229.217 C 226.724 229.693,231.306 228.956,232.062 228.284 C 232.401 227.981,232.841 227.737,233.039 227.740 C 233.236 227.744,233.135 227.917,232.813 228.125 C 232.314 228.447,232.330 228.505,232.922 228.510 C 233.305 228.513,233.713 228.269,233.828 227.968 C 233.944 227.667,234.378 227.332,234.793 227.223 C 235.269 227.099,235.452 227.181,235.288 227.447 C 235.115 227.727,235.278 227.765,235.776 227.561 C 236.187 227.393,236.829 227.167,237.203 227.060 C 237.576 226.952,237.798 226.728,237.695 226.562 C 237.592 226.396,237.726 226.268,237.992 226.278 C 239.329 226.326,239.870 226.140,239.611 225.721 C 239.448 225.457,239.503 225.375,239.744 225.524 C 240.261 225.844,243.456 224.446,243.077 224.066 C 242.923 223.913,243.128 223.914,243.533 224.069 C 244.042 224.264,244.182 224.212,243.989 223.899 C 243.806 223.603,243.920 223.527,244.316 223.679 C 244.649 223.807,244.922 223.717,244.922 223.479 C 244.922 223.241,245.196 223.047,245.531 223.047 C 245.892 223.047,246.026 222.863,245.861 222.596 C 245.690 222.319,245.754 222.251,246.025 222.419 C 246.633 222.794,248.132 221.939,247.802 221.404 C 247.638 221.139,247.715 221.084,248.004 221.262 C 248.525 221.584,249.708 220.788,249.414 220.313 C 249.311 220.146,249.533 219.771,249.907 219.478 C 250.521 218.996,250.535 219.010,250.050 219.629 C 249.687 220.092,249.658 220.313,249.962 220.313 C 250.208 220.313,250.577 219.873,250.781 219.336 C 250.985 218.799,251.255 218.359,251.381 218.359 C 251.506 218.359,251.500 218.535,251.367 218.750 C 251.001 219.343,251.542 219.217,252.204 218.555 C 252.527 218.232,252.700 217.969,252.589 217.969 C 252.479 217.969,253.617 216.667,255.119 215.076 C 257.940 212.088,258.553 211.819,259.599 213.109 C 259.937 213.526,260.104 213.649,259.969 213.382 C 259.834 213.115,259.922 212.588,260.165 212.210 C 260.581 211.562,260.594 211.563,260.386 212.227 C 260.257 212.638,260.326 212.832,260.551 212.693 C 261.069 212.373,261.046 210.938,260.524 210.938 C 260.296 210.938,260.221 210.759,260.356 210.540 C 260.897 209.664,260.974 208.136,260.463 208.396 C 260.187 208.537,260.280 208.391,260.671 208.072 C 261.061 207.754,261.368 207.389,261.354 207.262 C 261.263 206.455,261.384 206.238,261.785 206.486 C 262.095 206.678,262.159 206.553,261.985 206.098 C 261.841 205.725,261.888 205.527,262.090 205.652 C 262.289 205.775,262.626 205.564,262.839 205.184 C 263.184 204.567,263.272 204.611,263.644 205.590 C 263.904 206.275,264.233 206.581,264.519 206.405 C 264.827 206.214,264.895 206.334,264.727 206.772 C 264.590 207.129,264.648 207.422,264.857 207.422 C 265.074 207.422,265.154 206.708,265.045 205.762 C 264.939 204.849,265.043 203.838,265.276 203.516 C 265.630 203.025,265.662 203.044,265.471 203.634 C 265.327 204.079,265.398 204.242,265.664 204.078 C 265.895 203.935,265.999 203.495,265.896 203.100 C 265.792 202.705,265.835 202.329,265.991 202.265 C 266.620 202.006,268.866 197.170,268.971 195.849 C 269.033 195.070,269.283 194.235,269.527 193.993 C 269.858 193.666,269.859 193.852,269.531 194.727 C 269.199 195.611,269.202 195.789,269.542 195.453 C 270.012 194.988,270.508 192.029,270.662 188.770 C 270.684 188.286,270.889 187.891,271.117 187.891 C 271.344 187.891,271.440 188.037,271.329 188.216 C 271.219 188.395,271.381 188.542,271.691 188.542 C 272.020 188.542,272.128 188.366,271.952 188.118 C 271.471 187.444,271.388 185.547,271.840 185.547 C 272.066 185.547,272.358 186.030,272.490 186.621 C 272.932 188.610,273.098 189.063,273.384 189.063 C 273.754 189.063,273.715 187.441,273.331 186.843 C 273.168 186.590,273.225 186.264,273.458 186.120 C 273.691 185.976,273.851 185.305,273.815 184.629 C 273.779 183.952,273.786 183.223,273.832 183.008 C 273.877 182.793,273.882 182.221,273.843 181.737 C 273.804 181.253,274.035 180.755,274.358 180.632 C 274.680 180.508,274.879 180.072,274.800 179.663 C 274.721 179.254,274.954 178.745,275.317 178.534 C 275.680 178.322,275.773 178.143,275.525 178.137 C 275.268 178.130,275.161 177.790,275.276 177.348 C 275.405 176.856,275.249 176.484,274.849 176.330 C 274.502 176.197,274.219 175.766,274.219 175.372 C 274.219 174.978,274.055 174.554,273.854 174.430 C 273.653 174.306,273.588 173.594,273.709 172.848 C 273.830 172.102,273.748 171.270,273.527 170.999 C 273.102 170.479,273.908 169.350,274.372 169.815 C 274.995 170.437,274.513 169.149,273.828 168.359 C 273.108 167.529,272.897 167.005,273.145 166.662 C 273.198 166.587,272.979 166.209,272.656 165.820 C 272.334 165.432,272.129 164.771,272.200 164.350 C 272.289 163.825,272.178 163.680,271.846 163.885 C 271.518 164.088,271.463 164.022,271.675 163.679 C 271.910 163.299,272.152 163.394,272.659 164.066 C 273.028 164.555,273.515 164.842,273.741 164.702 C 273.967 164.563,274.226 164.581,274.317 164.744 C 274.407 164.906,274.397 164.775,274.294 164.453 C 274.190 164.131,274.094 163.572,274.079 163.212 C 274.064 162.852,273.907 162.646,273.731 162.755 C 273.555 162.864,273.493 162.500,273.594 161.945 C 273.694 161.391,273.618 160.938,273.424 160.938 C 273.230 160.938,273.167 160.688,273.284 160.383 C 273.401 160.078,273.210 159.391,272.860 158.857 C 272.457 158.241,272.369 157.795,272.620 157.640 C 272.878 157.480,272.889 157.057,272.651 156.431 C 272.450 155.902,272.402 155.469,272.545 155.469 C 272.688 155.469,272.466 155.221,272.052 154.917 C 271.637 154.614,271.137 154.466,270.940 154.587 C 270.743 154.709,270.713 154.597,270.873 154.338 C 271.097 153.976,271.312 153.984,271.812 154.376 C 272.394 154.831,272.405 154.812,271.918 154.190 C 271.582 153.763,271.095 153.587,270.646 153.729 C 270.186 153.875,269.832 153.736,269.684 153.349 C 269.555 153.014,269.308 152.826,269.136 152.932 C 268.964 153.039,268.922 152.747,269.043 152.283 C 269.165 151.816,269.104 151.539,268.904 151.663 C 268.706 151.785,268.535 151.285,268.522 150.552 C 268.506 149.593,268.672 149.217,269.113 149.213 C 269.652 149.208,269.655 149.161,269.141 148.828 C 268.818 148.620,268.739 148.447,268.965 148.443 C 269.190 148.440,269.569 148.631,269.805 148.868 C 270.355 149.417,272.767 148.932,272.404 148.345 C 272.254 148.103,272.328 148.039,272.579 148.194 C 272.817 148.342,272.914 148.721,272.793 149.036 C 272.672 149.351,272.767 149.609,273.005 149.609 C 273.243 149.609,273.396 149.741,273.345 149.902 C 273.179 150.425,274.302 152.734,274.722 152.734 C 274.946 152.734,275.015 152.849,274.875 152.990 C 274.735 153.130,274.983 153.833,275.428 154.552 C 275.872 155.271,276.098 155.859,275.930 155.859 C 275.762 155.859,275.836 156.070,276.094 156.328 C 276.352 156.586,276.563 157.130,276.563 157.537 C 276.563 157.946,276.909 158.367,277.339 158.479 C 277.767 158.591,278.018 158.841,277.898 159.035 C 277.778 159.229,277.490 159.270,277.256 159.126 C 277.001 158.968,276.945 159.046,277.115 159.321 C 277.271 159.573,277.605 159.654,277.859 159.502 C 278.126 159.342,278.096 159.502,277.788 159.881 C 277.331 160.444,277.350 160.574,277.918 160.792 C 278.445 160.994,278.474 161.114,278.060 161.377 C 277.659 161.630,277.695 161.708,278.213 161.713 C 278.881 161.719,278.885 160.317,278.223 158.594 C 278.099 158.271,277.960 157.876,277.915 157.715 C 277.869 157.554,277.797 157.378,277.754 157.324 C 277.711 157.271,277.597 156.791,277.499 156.259 C 277.401 155.727,277.057 155.144,276.733 154.963 C 276.269 154.703,276.191 154.135,276.363 152.287 C 276.484 150.997,276.437 150.031,276.260 150.141 C 276.083 150.250,275.938 149.918,275.938 149.402 C 275.938 148.886,276.018 148.544,276.116 148.642 C 276.215 148.741,276.524 148.631,276.804 148.399 C 277.196 148.074,277.279 148.149,277.168 148.729 C 276.979 149.710,277.524 150.656,277.914 150.025 C 278.067 149.777,278.016 149.363,277.801 149.104 C 277.392 148.611,277.344 148.435,277.344 147.438 C 277.344 147.103,277.177 146.932,276.974 147.058 C 276.770 147.184,276.674 146.921,276.760 146.475 C 276.846 146.024,276.677 145.573,276.377 145.457 C 276.081 145.344,275.901 144.926,275.977 144.528 C 276.054 144.131,275.778 143.416,275.366 142.940 C 274.953 142.464,274.449 141.475,274.247 140.742 C 274.045 140.010,273.414 139.045,272.846 138.597 C 272.174 138.069,271.879 137.529,272.002 137.056 C 272.107 136.655,272.033 136.426,271.839 136.546 C 271.496 136.758,271.309 136.152,271.471 135.352 C 271.514 135.137,271.421 135.090,271.264 135.247 C 271.106 135.404,270.652 135.157,270.255 134.699 C 269.348 133.654,269.322 133.330,270.200 134.034 C 270.568 134.329,270.028 133.469,269.001 132.123 C 267.864 130.634,266.952 129.779,266.672 129.939 C 266.418 130.085,266.340 130.061,266.498 129.886 C 266.656 129.712,266.480 129.319,266.107 129.014 C 265.735 128.708,265.681 128.589,265.988 128.749 C 266.296 128.909,265.342 127.788,263.868 126.258 C 262.395 124.729,261.071 123.550,260.927 123.639 C 260.783 123.728,260.425 123.353,260.131 122.805 C 259.574 121.763,257.440 120.026,257.397 120.579 C 257.383 120.755,257.209 120.492,257.010 119.994 C 256.810 119.497,256.470 119.200,256.253 119.334 C 256.037 119.468,255.859 119.391,255.859 119.164 C 255.859 118.936,255.585 118.750,255.250 118.750 C 254.915 118.750,254.728 118.609,254.834 118.438 C 254.941 118.266,254.669 117.901,254.231 117.627 C 253.577 117.219,253.481 117.222,253.699 117.647 C 253.845 117.931,253.712 117.856,253.404 117.480 C 253.096 117.104,252.674 116.797,252.466 116.797 C 252.259 116.797,251.682 116.363,251.183 115.832 C 250.685 115.302,250.127 114.961,249.943 115.074 C 249.760 115.188,249.609 115.065,249.609 114.802 C 249.609 114.538,249.495 114.437,249.355 114.577 C 249.215 114.717,248.890 114.544,248.633 114.192 C 248.365 113.826,247.962 113.678,247.690 113.846 C 247.333 114.067,247.380 114.323,247.878 114.873 C 248.243 115.277,248.665 115.531,248.815 115.438 C 248.966 115.345,249.089 115.525,249.089 115.837 C 249.089 116.150,248.854 116.406,248.568 116.406 C 248.281 116.406,248.091 116.274,248.145 116.113 C 248.198 115.952,248.119 115.820,247.968 115.820 C 247.817 115.820,247.223 115.253,246.648 114.559 C 246.073 113.865,245.450 113.392,245.262 113.508 C 245.075 113.623,244.922 113.444,244.922 113.109 C 244.922 112.774,244.736 112.500,244.508 112.500 C 244.281 112.500,244.191 112.344,244.309 112.154 C 244.603 111.678,243.490 110.811,242.986 111.122 C 242.762 111.261,242.578 111.201,242.578 110.988 C 242.578 110.542,238.819 110.717,236.639 111.265 C 235.843 111.465,235.139 111.517,235.076 111.381 C 234.867 110.930,230.534 108.844,229.676 108.781 C 229.213 108.747,228.719 108.555,228.577 108.355 C 228.079 107.651,226.173 106.999,226.159 107.528 C 226.153 107.792,225.889 107.667,225.574 107.250 C 225.160 106.703,224.997 106.648,224.988 107.054 C 224.978 107.489,224.858 107.463,224.461 106.940 C 224.178 106.567,223.836 106.372,223.701 106.507 C 223.567 106.642,223.188 106.530,222.861 106.258 C 222.534 105.986,222.266 105.895,222.266 106.055 C 222.266 106.215,222.002 106.127,221.680 105.859 C 221.357 105.592,221.094 105.504,221.094 105.664 C 221.094 105.824,220.830 105.736,220.508 105.469 C 220.039 105.080,219.922 105.082,219.922 105.481 C 219.922 105.811,219.634 105.728,219.073 105.236 C 218.536 104.765,218.346 104.707,218.555 105.078 C 218.791 105.498,218.663 105.470,218.102 104.980 C 217.672 104.603,217.202 104.413,217.058 104.556 C 216.914 104.700,216.797 104.618,216.797 104.374 C 216.797 104.130,216.533 104.032,216.211 104.156 C 215.889 104.279,215.625 104.175,215.625 103.925 C 215.625 103.674,215.434 103.588,215.200 103.732 C 214.967 103.876,214.862 104.326,214.968 104.731 C 215.074 105.136,214.975 105.583,214.747 105.724 C 214.488 105.884,214.449 105.791,214.644 105.477 C 214.879 105.095,214.662 105.016,213.748 105.150 C 213.084 105.248,212.630 105.183,212.739 105.007 C 212.848 104.831,212.125 104.688,211.133 104.688 C 210.141 104.688,209.416 104.829,209.523 105.001 C 209.629 105.174,209.200 105.279,208.569 105.235 C 207.938 105.192,207.422 105.282,207.422 105.437 C 207.422 105.591,206.719 105.662,205.859 105.594 C 204.944 105.521,204.297 105.641,204.297 105.883 C 204.297 106.110,204.122 106.188,203.908 106.056 C 203.694 105.923,203.143 105.743,202.683 105.654 C 201.147 105.358,201.646 104.783,203.223 105.032 C 203.384 105.057,203.516 104.902,203.516 104.688 C 203.516 104.473,203.120 104.285,202.637 104.271 C 200.655 104.213,195.500 103.829,195.401 103.731 C 195.342 103.674,195.595 103.382,195.964 103.083 C 196.501 102.647,196.571 102.644,196.317 103.066 C 196.055 103.502,196.161 103.509,196.926 103.111 C 198.103 102.497,198.448 102.145,197.559 102.465 C 196.551 102.826,196.726 102.378,197.754 101.965 C 198.318 101.739,198.411 101.603,198.014 101.587 C 197.674 101.574,197.320 101.639,197.226 101.732 M203.637 103.170 C 204.026 103.396,204.604 103.481,204.922 103.359 C 205.315 103.209,205.464 103.355,205.387 103.815 C 205.228 104.765,206.756 104.907,207.639 104.025 C 208.318 103.346,208.302 103.311,207.199 103.074 C 205.151 102.632,202.821 102.695,203.637 103.170 M193.592 122.504 C 193.415 122.965,193.517 123.070,193.973 122.895 C 194.315 122.764,194.679 122.656,194.782 122.656 C 194.884 122.656,194.859 122.480,194.727 122.266 C 194.368 121.686,193.866 121.792,193.592 122.504 M262.720 125.488 L 263.867 126.758 262.598 125.611 C 261.899 124.979,261.328 124.408,261.328 124.341 C 261.328 124.039,261.650 124.305,262.720 125.488 M125.344 144.140 C 125.319 144.463,125.321 144.864,125.348 145.031 C 125.376 145.199,125.146 145.825,124.837 146.422 C 124.474 147.123,124.402 147.706,124.632 148.070 C 124.919 148.523,124.989 148.487,124.994 147.884 C 124.997 147.472,125.114 147.250,125.254 147.390 C 125.394 147.530,125.759 147.339,126.065 146.967 C 126.408 146.548,126.511 146.513,126.334 146.875 C 126.176 147.197,126.197 147.324,126.381 147.157 C 126.565 146.989,126.755 146.580,126.804 146.247 C 126.853 145.914,127.021 145.348,127.177 144.989 C 127.726 143.729,127.632 143.523,126.516 143.538 C 125.803 143.547,125.374 143.768,125.344 144.140 M120.955 159.450 C 120.187 160.377,120.048 160.776,120.411 161.006 C 120.801 161.254,120.800 161.317,120.410 161.322 C 120.095 161.326,119.926 161.917,119.934 162.988 C 119.946 164.544,119.983 164.600,120.529 163.878 C 120.849 163.455,121.021 162.874,120.912 162.589 C 120.802 162.303,120.875 162.170,121.075 162.293 C 121.274 162.416,121.450 162.205,121.465 161.825 C 121.532 160.155,121.669 159.375,121.894 159.375 C 122.027 159.375,122.135 159.111,122.135 158.789 C 122.135 158.017,122.148 158.010,120.955 159.450 M278.464 162.634 C 278.704 162.922,278.769 163.302,278.610 163.477 C 278.451 163.653,278.584 163.647,278.906 163.464 C 279.379 163.195,279.404 163.240,279.036 163.696 C 278.684 164.131,278.707 164.433,279.134 165.017 C 279.720 165.819,279.824 165.641,279.693 164.063 C 279.604 162.991,279.029 162.109,278.420 162.109 C 278.182 162.109,278.199 162.314,278.464 162.634 M279.460 166.656 C 279.515 167.033,279.765 167.409,280.015 167.492 C 280.650 167.704,280.582 166.987,279.914 166.432 C 279.469 166.063,279.379 166.107,279.460 166.656 M238.577 181.111 C 237.798 182.697,238.512 185.152,239.564 184.502 C 239.823 184.341,239.881 184.495,239.719 184.917 C 239.578 185.286,239.607 185.498,239.784 185.388 C 240.347 185.041,240.273 181.632,239.684 180.792 C 239.135 180.008,239.117 180.013,238.577 181.111 M271.941 189.723 C 271.905 190.194,271.680 190.699,271.443 190.846 C 271.141 191.032,271.171 191.215,271.540 191.449 C 271.986 191.732,271.986 191.786,271.540 191.791 C 271.165 191.795,271.083 192.093,271.262 192.806 C 271.427 193.461,271.373 193.727,271.109 193.564 C 270.886 193.426,270.703 193.499,270.703 193.727 C 270.703 193.954,270.987 194.141,271.335 194.141 C 271.795 194.141,271.916 193.880,271.782 193.178 C 271.681 192.648,271.761 192.160,271.961 192.094 C 272.160 192.027,272.252 191.274,272.165 190.420 C 272.078 189.566,271.977 189.252,271.941 189.723 M274.990 191.236 C 274.507 192.508,274.517 193.020,275.043 193.750 C 275.405 194.254,275.436 194.246,275.259 193.691 C 275.146 193.336,275.172 192.927,275.316 192.783 C 275.593 192.506,275.775 190.234,275.520 190.234 C 275.438 190.234,275.200 190.685,274.990 191.236 M236.988 192.871 C 236.815 193.140,236.777 193.529,236.905 193.736 C 237.033 193.943,236.793 194.457,236.371 194.879 C 235.898 195.352,235.670 195.992,235.776 196.553 C 235.869 197.052,235.837 197.227,235.703 196.940 C 235.534 196.579,235.244 196.776,234.749 197.589 C 234.358 198.232,233.694 198.868,233.272 199.001 C 232.378 199.285,231.831 200.781,232.621 200.781 C 232.905 200.781,233.207 200.988,233.291 201.241 C 233.381 201.510,233.654 201.571,233.951 201.388 C 234.364 201.133,234.359 201.011,233.928 200.738 C 233.511 200.474,233.538 200.401,234.056 200.397 C 234.673 200.391,235.422 199.039,235.219 198.296 C 235.168 198.111,235.425 197.741,235.789 197.475 C 236.152 197.209,236.477 196.628,236.510 196.185 C 236.542 195.741,236.792 195.109,237.064 194.781 C 237.337 194.452,237.502 193.778,237.432 193.283 C 237.343 192.662,237.206 192.534,236.988 192.871 M233.887 194.617 C 233.560 195.107,232.917 195.936,232.456 196.459 C 231.525 197.517,231.104 198.791,231.330 199.871 C 231.462 200.502,231.540 200.477,231.990 199.660 C 232.270 199.151,232.323 198.843,232.107 198.977 C 231.869 199.124,231.798 198.897,231.927 198.405 C 232.089 197.786,232.219 197.715,232.470 198.112 C 232.736 198.532,232.810 198.519,232.852 198.047 C 232.880 197.725,232.926 197.197,232.955 196.875 C 232.984 196.553,233.212 196.328,233.462 196.375 C 233.712 196.423,234.108 195.911,234.343 195.238 C 234.873 193.717,234.670 193.441,233.887 194.617 M274.219 194.716 C 274.219 195.495,274.877 195.807,275.130 195.147 C 275.246 194.844,275.089 194.499,274.780 194.381 C 274.456 194.256,274.219 194.398,274.219 194.716 M270.585 195.075 C 270.425 195.482,270.386 195.907,270.499 196.019 C 270.855 196.376,271.168 195.792,271.019 195.050 C 270.882 194.370,270.861 194.372,270.585 195.075 M273.633 198.438 C 273.798 198.957,273.761 199.224,273.544 199.090 C 273.342 198.965,273.177 199.102,273.177 199.394 C 273.177 199.686,273.411 199.836,273.698 199.726 C 274.328 199.484,274.388 198.198,273.786 197.826 C 273.492 197.644,273.443 197.839,273.633 198.438 M222.479 205.386 C 222.402 205.462,220.560 205.538,218.384 205.554 C 214.477 205.584,213.506 205.886,214.466 206.772 C 214.782 207.064,214.872 207.072,214.718 206.795 C 214.560 206.513,214.810 206.427,215.437 206.546 C 215.965 206.647,216.308 206.873,216.200 207.049 C 216.092 207.224,216.182 207.478,216.400 207.613 C 216.618 207.748,216.800 207.629,216.803 207.347 C 216.807 207.009,216.906 206.978,217.096 207.255 C 217.445 207.766,218.879 208.337,218.574 207.844 C 218.456 207.652,218.713 207.587,219.146 207.701 C 219.580 207.814,220.032 208.065,220.152 208.259 C 220.271 208.452,220.664 208.291,221.024 207.900 C 221.385 207.509,221.504 207.454,221.289 207.776 C 221.040 208.150,221.271 208.086,221.930 207.599 C 222.615 207.092,222.812 206.739,222.516 206.549 C 222.225 206.361,222.290 206.260,222.706 206.256 C 223.056 206.253,223.552 205.996,223.810 205.686 C 224.237 205.171,222.977 204.887,222.479 205.386 M182.580 206.190 C 182.733 206.438,182.682 206.641,182.465 206.641 C 182.205 206.641,182.210 207.036,182.480 207.813 C 182.705 208.457,183.048 208.984,183.241 208.984 C 183.435 208.984,183.598 209.292,183.602 209.668 C 183.607 210.044,183.955 210.791,184.375 211.328 C 184.795 211.865,185.160 212.568,185.187 212.891 C 185.213 213.213,185.365 213.037,185.524 212.500 C 185.684 211.963,185.715 211.348,185.594 211.133 C 185.473 210.918,185.334 210.479,185.285 210.157 C 185.237 209.835,184.836 209.279,184.395 208.922 C 183.954 208.565,183.594 207.994,183.594 207.652 C 183.594 207.311,183.408 207.031,183.180 207.031 C 182.953 207.031,182.868 206.868,182.991 206.668 C 183.115 206.468,183.010 206.177,182.759 206.021 C 182.473 205.845,182.406 205.908,182.580 206.190 M270.396 207.127 C 269.785 208.745,270.095 208.976,270.868 207.480 C 271.206 206.828,271.341 206.207,271.169 206.101 C 270.997 205.995,270.649 206.457,270.396 207.127 M179.247 210.778 C 179.220 211.188,179.156 211.914,179.106 212.392 C 179.055 212.870,179.165 213.167,179.351 213.053 C 179.536 212.938,179.688 213.135,179.688 213.490 C 179.688 214.282,181.052 216.083,181.393 215.742 C 181.529 215.606,181.641 215.781,181.641 216.130 C 181.641 216.479,182.122 217.212,182.711 217.758 C 183.299 218.303,183.668 218.750,183.531 218.750 C 183.393 218.750,183.773 219.277,184.375 219.922 C 184.977 220.566,185.690 221.094,185.959 221.094 C 186.295 221.094,186.246 220.869,185.803 220.379 C 185.447 219.987,185.156 219.441,185.156 219.166 C 185.156 218.892,184.717 218.321,184.180 217.899 C 183.643 217.476,183.203 216.948,183.203 216.725 C 183.203 216.502,183.565 216.735,184.008 217.242 L 184.812 218.164 184.158 217.090 C 183.798 216.499,183.348 216.016,183.158 216.016 C 182.968 216.016,182.813 215.674,182.813 215.257 C 182.813 214.840,182.610 214.374,182.362 214.221 C 182.063 214.036,182.017 214.115,182.227 214.453 C 182.436 214.791,182.390 214.870,182.092 214.686 C 181.844 214.532,181.641 213.978,181.641 213.454 C 181.641 212.929,181.454 212.500,181.227 212.500 C 180.999 212.500,180.879 212.368,180.960 212.207 C 181.041 212.046,180.700 211.491,180.202 210.973 C 179.371 210.109,179.293 210.093,179.247 210.778 M256.046 214.462 C 254.993 215.531,254.307 216.406,254.523 216.406 C 255.031 216.406,258.411 212.968,258.155 212.713 C 258.048 212.606,257.099 213.393,256.046 214.462 M193.750 223.042 C 193.750 223.188,193.494 223.307,193.181 223.307 C 192.868 223.307,192.696 223.173,192.797 223.009 C 192.898 222.845,192.803 222.600,192.584 222.465 C 192.366 222.330,192.188 222.027,192.188 221.791 C 192.188 221.556,192.539 221.681,192.969 222.070 C 193.398 222.459,193.750 222.897,193.750 223.042 M154.517 275.879 L 155.664 277.148 154.395 276.001 C 153.211 274.932,152.945 274.609,153.247 274.609 C 153.314 274.609,153.886 275.181,154.517 275.879 " stroke="none" fill="#a40432" fill-rule="evenodd"></path><path id="path2" d="M209.197 100.810 C 209.360 101.072,211.328 100.818,211.328 100.534 C 211.328 100.448,210.813 100.417,210.183 100.465 C 209.554 100.513,209.110 100.668,209.197 100.810 M204.705 103.873 C 204.465 104.321,204.432 104.688,204.632 104.688 C 205.033 104.688,205.588 103.504,205.314 103.231 C 205.219 103.136,204.945 103.425,204.705 103.873 M148.466 124.770 C 148.154 125.147,148.139 125.401,148.419 125.574 C 148.644 125.713,148.842 125.773,148.858 125.707 C 149.237 124.175,149.144 123.953,148.466 124.770 M261.328 124.341 C 261.328 124.408,261.899 124.979,262.598 125.611 L 263.867 126.758 262.720 125.488 C 261.650 124.305,261.328 124.039,261.328 124.341 M270.512 134.961 C 272.077 137.135,272.510 137.538,271.638 136.009 C 271.231 135.296,270.558 134.417,270.143 134.056 C 269.703 133.673,269.857 134.052,270.512 134.961 M139.700 158.691 L 138.997 159.961 139.802 158.984 C 140.517 158.118,140.834 157.422,140.514 157.422 C 140.453 157.422,140.087 157.993,139.700 158.691 M214.360 159.651 C 214.846 159.745,215.549 159.741,215.923 159.643 C 216.296 159.546,215.898 159.469,215.039 159.474 C 214.180 159.478,213.874 159.558,214.360 159.651 M221.875 160.306 C 221.875 160.388,222.314 160.540,222.852 160.642 C 223.389 160.745,223.828 160.678,223.828 160.493 C 223.828 160.308,223.389 160.156,222.852 160.156 C 222.314 160.156,221.875 160.224,221.875 160.306 M278.937 165.114 C 278.920 165.370,279.085 165.689,279.303 165.824 C 279.522 165.959,279.582 166.260,279.438 166.494 C 279.282 166.747,279.358 166.805,279.627 166.639 C 279.875 166.486,280.078 166.096,280.078 165.774 C 280.078 165.452,279.917 165.288,279.721 165.409 C 279.524 165.531,279.275 165.409,279.166 165.139 C 279.024 164.788,278.959 164.781,278.937 165.114 M190.301 173.085 C 189.578 174.242,189.899 174.329,190.741 173.204 C 191.127 172.688,191.301 172.266,191.128 172.266 C 190.955 172.266,190.583 172.634,190.301 173.085 M275.535 176.800 C 275.389 177.206,275.199 177.671,275.112 177.832 C 275.025 177.993,275.120 178.125,275.322 178.125 C 275.712 178.125,276.261 176.521,275.970 176.231 C 275.876 176.137,275.681 176.393,275.535 176.800 M274.089 180.729 C 273.945 180.872,273.839 181.356,273.853 181.803 C 273.876 182.552,273.908 182.542,274.252 181.682 C 274.634 180.725,274.555 180.263,274.089 180.729 M186.139 190.616 C 185.996 190.846,186.102 190.987,186.375 190.928 C 186.649 190.868,186.991 191.345,187.139 191.992 C 187.399 193.129,187.409 193.133,187.454 192.138 C 187.505 190.995,186.572 189.915,186.139 190.616 M273.496 197.246 C 273.664 197.750,274.200 197.840,274.248 197.373 C 274.264 197.217,274.066 197.020,273.809 196.934 C 273.551 196.848,273.410 196.988,273.496 197.246 M131.375 200.781 C 131.375 202.178,131.446 202.749,131.533 202.051 C 131.619 201.353,131.619 200.210,131.533 199.512 C 131.446 198.813,131.375 199.385,131.375 200.781 M272.852 200.391 C 272.719 200.605,272.752 200.784,272.926 200.787 C 273.100 200.791,272.979 200.964,272.656 201.172 C 272.162 201.491,272.184 201.551,272.796 201.557 C 273.267 201.560,273.446 201.366,273.306 201.002 C 273.188 200.693,273.301 200.356,273.557 200.251 C 273.917 200.105,273.917 200.055,273.558 200.031 C 273.302 200.014,272.984 200.176,272.852 200.391 M272.461 202.252 C 272.246 202.410,272.032 203.046,271.986 203.666 C 271.939 204.285,271.988 204.704,272.095 204.597 C 272.288 204.405,273.058 201.948,272.922 201.959 C 272.883 201.962,272.676 202.094,272.461 202.252 M214.453 206.486 C 214.453 206.848,215.998 207.376,216.183 207.077 C 216.301 206.886,215.960 206.646,215.425 206.544 C 214.891 206.442,214.453 206.416,214.453 206.486 M255.724 214.424 C 254.509 215.697,253.516 216.869,253.516 217.028 C 253.516 217.187,253.569 217.244,253.633 217.155 C 253.698 217.065,254.779 215.894,256.036 214.551 C 257.294 213.208,258.234 212.109,258.127 212.109 C 258.019 212.109,256.938 213.151,255.724 214.424 M190.654 220.554 C 191.175 221.224,191.671 221.712,191.755 221.638 C 191.839 221.564,191.700 221.252,191.446 220.946 C 191.191 220.639,191.122 220.312,191.292 220.219 C 191.462 220.126,191.403 220.095,191.161 220.151 C 190.919 220.206,190.492 220.045,190.213 219.794 C 189.934 219.542,190.132 219.884,190.654 220.554 M192.188 221.852 C 192.188 222.054,192.366 222.330,192.584 222.465 C 192.803 222.600,192.898 222.845,192.797 223.009 C 192.696 223.173,192.853 223.307,193.148 223.307 C 193.583 223.307,193.571 223.137,193.085 222.396 C 192.446 221.420,192.188 221.263,192.188 221.852 M159.375 280.422 C 159.375 280.803,160.894 282.224,161.057 281.996 C 161.121 281.908,160.768 281.447,160.274 280.971 C 159.779 280.495,159.375 280.248,159.375 280.422 M186.049 288.789 C 186.525 289.284,186.986 289.636,187.074 289.573 C 187.302 289.409,185.881 287.891,185.500 287.891 C 185.326 287.891,185.573 288.295,186.049 288.789 M206.152 299.885 C 206.636 299.978,207.427 299.978,207.910 299.885 C 208.394 299.792,207.998 299.716,207.031 299.716 C 206.064 299.716,205.669 299.792,206.152 299.885 " stroke="none" fill="#ac042c" fill-rule="evenodd"></path><path id="path3" d="M149.402 147.754 L 147.070 150.195 149.512 147.864 C 151.780 145.698,152.132 145.313,151.843 145.313 C 151.783 145.313,150.684 146.411,149.402 147.754 M190.234 215.357 C 190.234 215.424,190.806 215.995,191.504 216.626 L 192.773 217.773 191.626 216.504 C 190.557 215.321,190.234 215.055,190.234 215.357 " stroke="none" fill="#b00434" fill-rule="evenodd"></path><path id="path4" d="M149.402 147.754 L 147.070 150.195 149.512 147.864 C 151.780 145.698,152.132 145.313,151.843 145.313 C 151.783 145.313,150.684 146.411,149.402 147.754 M190.234 215.357 C 190.234 215.424,190.806 215.995,191.504 216.626 L 192.773 217.773 191.626 216.504 C 190.557 215.321,190.234 215.055,190.234 215.357 " stroke="none" fill="#b00434" fill-rule="evenodd"></path></g></svg>